# xmcd
#
# Track frame offsets: 
#        150
#        20688
#        29842
#        45804
#        62443
#        83307
#        98327
#        116068
#        132566
#        145679
#        160988
#
# Disc length: 2368 seconds
#
# Revision: 0
# Processed by: cddbd v1.5.2PL0 Copyright (c) Steve Scherf et al.
# Submitted via: ExactAudioCopy v0.99pb3
#
DISCID=83093e0b
DTITLE=Verra Cruz - Innocence
DYEAR=2008
DGENRE=Rock
TTITLE0=Not In The Fire
TTITLE1=Blind Man
TTITLE2=Freedom
TTITLE3=Put The Weapon Down
TTITLE4=Friend To You
TTITLE5=Innocence
TTITLE6=Soul On Fire
TTITLE7=She Don't Want Him
TTITLE8=How Long For This World
TTITLE9=Grace
TTITLE10=One
EXTD=
EXTT0=
EXTT1=
EXTT2=
EXTT3=
EXTT4=
EXTT5=
EXTT6=
EXTT7=
EXTT8=
EXTT9=
EXTT10=
PLAYORDER=
